<?xml version="1.0" encoding="utf-8"?>
<!-- Generator: Adobe Illustrator 22.1.0, SVG Export Plug-In . SVG Version: 6.00 Build 0)  -->
<svg version="1.1" id="Layer_1" xmlns="http://www.w3.org/2000/svg" xmlns:xlink="http://www.w3.org/1999/xlink" x="0px" y="0px"
	 viewBox="0 0 297.2 89" style="enable-background:new 0 0 297.2 89;" xml:space="preserve">
<style type="text/css">
	.st0{fill:#FFFFFF;}
</style>
<g>
	<g>
		<g>
			<path class="st0" d="M52.2,0.5c-2.6-0.2-5-0.5-7.6-0.5C32.8,0,22.2,4.7,14.3,11.9H56c0.5-1.1,0.8-1.2,1.3-2.4L52.2,0.5z"/>
			<path class="st0" d="M10.3,16c-1.6,1.9-3.1,4-4.3,6.3C0.1,32.5-1.3,44,1.1,54.5L22,18.4c-0.5-1.1-0.8-1.2-1.3-2.4H10.3z"/>
			<path class="st0" d="M86.3,29c-0.9-2.4-1.9-4.8-3.3-6.9C77.2,12.1,68,5.2,57.6,2l20.9,36.1c1.2,0,1.5,0,2.7,0L86.3,29z"/>
			<path class="st0" d="M87.9,34.6L67.1,70.7c0.5,1.1,0.8,1.2,1.3,2.4h10.4c1.6-1.9,3.1-4,4.3-6.3C88.9,56.6,90.4,45.3,87.9,34.6z"
				/>
			<path class="st0" d="M74.8,77.1L74.8,77.1L74.8,77.1z"/>
			<path class="st0" d="M37,88.5c2.5,0.3,4.9,0.5,7.6,0.5c11.7,0,22.4-4.7,30.2-11.9H33c-0.5,1.1-0.8,1.2-1.3,2.4L37,88.5z"/>
			<path class="st0" d="M2.7,60c0.9,2.4,1.9,4.8,3.3,6.9C12,77,21.1,84.1,31.4,87.3L10.6,51c-1.2,0-1.5,0-2.7,0L2.7,60z"/>
		</g>
		<path class="st0" d="M66.3,49.6l-1.5-1.1c-0.9-0.5-1.5-1.7-1.5-2.8v-2.4c0-1.1,0.5-2.3,1.5-2.8l1.5-1.1l1.2-0.9
			c-0.4-2.3-1.3-4.1-2.5-6.3l-1.5,0.3l-1.7,0.3c-1.1,0.1-2.4-0.3-2.9-1.1l-1.6-1.6c-0.8-0.8-1.1-2.1-1.1-2.9l0.3-1.7l0.3-1.5
			c-1.7-1.1-4-1.9-6.3-2.5l-0.9,1.2l-1.1,1.5c-0.4,0.8-1.7,1.5-2.8,1.5h-2.4c-1.1,0-2.3-0.5-2.8-1.5l-1.1-1.5l-0.8-1.1
			c-2.3,0.5-4.1,1.5-6.3,2.5l0.3,1.5l0.3,1.7c0.1,1.1-0.3,2.4-1.1,2.9L30.3,32c-0.8,0.8-2.1,1.1-2.9,1.1l-1.7-0.3l-1.5-0.3
			c-1.1,1.7-1.9,4-2.5,6.3l1.2,0.9l1.5,1.1c0.8,0.5,1.5,1.7,1.5,2.8V46c0,1.1-0.5,2.3-1.5,2.8l-1.5,1.1l-1.2,0.9
			c0.5,2.3,1.5,4.1,2.5,6.3l1.5-0.3l1.7-0.3c1.1-0.1,2.4,0.3,2.9,1.1l1.7,1.6c0.8,0.8,1.1,2.1,1.1,2.9l-0.3,1.7l-0.3,1.5
			c1.7,1.1,4,1.9,6.3,2.5l0.9-1.2l1.1-1.5c0.5-0.9,1.7-1.5,2.8-1.5H46c1.1,0,2.3,0.5,2.8,1.5l1.1,1.5l0.9,1.2
			c2.3-0.5,4.3-1.5,6.3-2.5l-0.3-1.5l-0.3-1.7c-0.1-1.1,0.3-2.4,1.1-2.9l1.7-1.6c0.8-0.8,2.1-1.1,2.9-1.1l1.7,0.3l1.5,0.3
			c1.1-1.7,1.9-4,2.5-6.3L66.3,49.6z M44.6,53.6c-4.9,0-8.9-4-8.9-8.9s4-8.9,8.9-8.9s8.9,4,8.9,8.9S49.5,53.6,44.6,53.6z"/>
	</g>
	<g>
		<rect x="100.7" y="77.5" class="st0" width="196.4" height="3.3"/>
		<path class="st0" d="M98.9,32.8l4.3-5.2c2.8,2.3,5.7,3.5,9.1,3.5c2.1,0,3.3-0.8,3.3-1.9V29c0-1.2-0.9-1.7-4.8-2.7
			c-6-1.3-10.5-3.1-10.5-8.8v-0.1c0-5.2,4.1-8.9,10.8-8.9c4.8,0,8.5,1.3,11.6,3.7l-3.9,5.5c-2.5-1.7-5.3-2.8-7.9-2.8
			c-1.9,0-2.8,0.8-2.8,1.7v0.1c0,1.3,1.1,1.7,4.9,2.7c6.4,1.3,10.4,3.5,10.4,8.8v0.1c0,5.7-4.7,9.2-11.3,9.2
			C107,37.6,102.4,35.8,98.9,32.8z"/>
		<path class="st0" d="M128,9.1h7.7v28.1H128V9.1z"/>
		<path class="st0" d="M140.5,23L140.5,23c0-8.3,6.4-14.7,15.1-14.7c4.9,0,8.5,1.5,11.5,4l-4.7,5.5c-1.9-1.6-4-2.7-6.8-2.7
			c-4,0-7.2,3.5-7.2,7.7V23c0,4.7,3.1,7.9,7.6,7.9c1.9,0,3.5-0.4,4.4-1.2v-3.5h-5.5v-5.6h12.9v12.7c-2.9,2.5-7.2,4.3-12.1,4.3
			C146.9,37.6,140.5,31.6,140.5,23z"/>
		<path class="st0" d="M173.1,9.1h7.7v10.5h10V9.1h7.7v28.1h-7.7V26.5h-10v10.7h-7.7C173.1,37,173.1,9.1,173.1,9.1z"/>
		<path class="st0" d="M210.6,15.7h-8.3V8.9h24.5v6.8h-8.5v21.5h-7.7V15.7z"/>
		<path class="st0" d="M101.1,44.1h8.1l6.7,10.8l6.7-10.8h8.1v28.1H123V56l-7.3,11h-0.1l-7.2-11v16h-7.6V44.1H101.1z"/>
		<path class="st0" d="M145.8,43.7h7.5l11.9,28.2h-8.3l-1.9-5.1h-10.8l-2.1,5.1H134L145.8,43.7z M152.7,61l-3.1-7.9l-3.1,7.9H152.7z
			"/>
		<path class="st0" d="M165.9,58.2L165.9,58.2c0-8.3,6.3-14.7,14.7-14.7c5.7,0,9.3,2.4,11.9,5.7l-5.7,4.4c-1.6-1.9-3.5-3.3-6.1-3.3
			c-3.9,0-6.7,3.5-6.7,7.5V58c0,4.1,2.8,7.5,6.7,7.5c2.9,0,4.7-1.3,6.4-3.5l5.7,4.1c-2.7,3.7-6.3,6.4-12.4,6.4
			C172.5,72.6,165.9,66.5,165.9,58.2z"/>
		<path class="st0" d="M196.4,44.1h7.7v10.5h10V44.1h7.7v28.1h-7.7V61.6h-10v10.7h-7.7V44.1z"/>
		<path class="st0" d="M228.2,44.1h7.7v28.1h-7.7V44.1z"/>
		<path class="st0" d="M241.9,44.1h7.3l11.6,14.8V44.1h7.7v28.1h-6.8l-12-15.5v15.5H242L241.9,44.1L241.9,44.1z"/>
		<path class="st0" d="M274.4,44.1h22.5v6.5h-14.8v4.3h13.5V61h-13.5v4.4h15.1v6.7h-22.8L274.4,44.1L274.4,44.1z"/>
	</g>
</g>
</svg>
